<svg width="25" height="25" viewBox="0 0 25 25" fill="none" xmlns="http://www.w3.org/2000/svg">
<path d="M3.5 3.61426L21.5 21.6143" stroke="#747681" stroke-width="1.5" stroke-linecap="round" stroke-linejoin="round"/>
<path d="M11.084 11.2013C10.7087 11.5763 10.4978 12.085 10.4976 12.6156C10.4974 13.1461 10.708 13.655 11.083 14.0303C11.458 14.4056 11.9668 14.6165 12.4973 14.6167C13.0279 14.6169 13.5367 14.4063 13.912 14.0313" stroke="#747681" stroke-width="1.5" stroke-linecap="round" stroke-linejoin="round"/>
<path d="M9.863 5.97932C10.7204 5.73404 11.6082 5.61116 12.5 5.61432C16.5 5.61432 19.833 7.94732 22.5 12.6143C21.722 13.9753 20.888 15.1383 19.997 16.1023M17.857 17.9633C16.226 19.0633 14.442 19.6143 12.5 19.6143C8.5 19.6143 5.167 17.2813 2.5 12.6143C3.869 10.2193 5.413 8.43932 7.132 7.27332" stroke="#747681" stroke-width="1.5" stroke-linecap="round" stroke-linejoin="round"/>
</svg>
