<svg width="23" height="23" viewBox="0 0 23 23" fill="none" xmlns="http://www.w3.org/2000/svg">
<path d="M21.3759 11.8281C21.3759 11.0367 21.3104 10.4592 21.1686 9.86035H11.9474V13.4323H17.36C17.251 14.3199 16.6617 15.6567 15.3521 16.555L15.3338 16.6746L18.2493 18.8881L18.4513 18.9078C20.3065 17.2288 21.3759 14.7584 21.3759 11.8281Z" fill="#4285F4"/>
<path d="M11.9468 21.2393C14.5985 21.2393 16.8247 20.3837 18.4507 18.9079L15.3515 16.555C14.5222 17.1218 13.409 17.5175 11.9468 17.5175C9.34958 17.5175 7.14524 15.8385 6.35945 13.5178L6.24427 13.5274L3.21262 15.8267L3.17297 15.9348C4.78803 19.0789 8.10548 21.2393 11.9468 21.2393Z" fill="#DEE33E"/>
<path d="M6.36006 13.5179C6.15272 12.919 6.03273 12.2773 6.03273 11.6142C6.03273 10.9511 6.15272 10.3095 6.34915 9.71062L6.34366 9.58307L3.274 7.24683L3.17357 7.29364C2.50792 8.59838 2.12598 10.0635 2.12598 11.6142C2.12598 13.1649 2.50792 14.63 3.17357 15.9348L6.36006 13.5179Z" fill="#FDCF24"/>
<path d="M11.9468 5.7109C13.791 5.7109 15.0351 6.49159 15.7444 7.144L18.5162 4.49176C16.8139 2.94107 14.5986 1.98926 11.9468 1.98926C8.10551 1.98926 4.78804 4.14952 3.17297 7.29366L6.34856 9.71064C7.14526 7.38995 9.34961 5.7109 11.9468 5.7109Z" fill="#EB4335"/>
</svg>
